<svg xmlns="http://www.w3.org/2000/svg"><symbol id="email" viewBox="0 0 256 256"><path d="M128 8a120 120 0 1 0 120 120A120 120 0 0 0 128 8zm73 166.4H55V97.3l56.6 37.8 5.1 3.4L128 146l11.3-7.5 5.1-3.4L201 97.3zm0-88.1l-59.2 39.4-4.3 2.9-9.5 6.3-9.5-6.3-4.3-2.9L55 86.3v-2.7h146z"/></symbol><symbol id="facebook" viewBox="0 0 256 256"><path d="M248 128a120 120 0 0 1-120 120h-2.5a120 120 0 1 1 122.3-125.9c.1 1.9.2 3.9.2 5.9zm-97.7-50H167V53.9h-23.8c-24 0-30.9 19.3-30.9 31.4v22.6H89v27.3h23.3v66.9h27.3v-66.9h22.7l3.5-27.3h-26.2V88.5c0-7 5.6-10.4 10.7-10.5z"/></symbol><symbol id="instagram" viewBox="0 0 256 256"><path d="M248 128A120 120 0 1 1 128 8a120 120 0 0 1 120 120zm-53.6-27.2c-.6-3.7-1-7.4-1.9-11-3.9-16.1-16.3-26.4-32.7-27.5-1.3-.1-2.6-.5-3.9-.7h-55.8c-4 .7-8.1 1.1-12 2.2-14.8 4.1-24.6 16.5-25.8 32.1-.1 1.4-.5 2.8-.7 4.2v55.8c.8 4.3 1.3 8.7 2.6 12.9 4.4 14.5 16.8 24 32 24.9 1.6.1 3.1.5 4.6.7h54.4c3.8-.7 7.6-1.1 11.4-2a35 35 0 0 0 27.1-32.7c.1-1.5.5-3 .7-4.5z"/><path d="M127.9 106a22 22 0 1 0 22 22.1 21.8 21.8 0 0 0-22-22.1z"/><path d="M156.9 74.3c-19.3-.3-38.6-.3-58 0-13.5.2-22.4 7.7-24.1 21.2-1.3 10.6-.8 51.6-.6 61.3.4 14.9 10 24.7 25 24.9 19.2.3 38.4.3 57.7 0 14.8-.2 24.5-9.9 24.8-24.7.3-19.3.3-38.7 0-58-.2-14.8-10-24.5-24.8-24.7zm-28.8 87.8a34.2 34.2 0 1 1 34-34.2 34.1 34.1 0 0 1-34 34.2zm35.3-61.4a8.3 8.3 0 0 1-8.1-8.4 8.2 8.2 0 0 1 8.3-7.8 8 8 0 0 1 7.8 8.2 8.1 8.1 0 0 1-8 8z"/></symbol><symbol id="logo-large" viewBox="0 0 256 256"><path d="M133.7 222.8l-9.8.1 4.9 3.1 4.9-3.2zm-22.3-45.7c-.1-1.4-.1-2.7-.2-4a43.2 43.2 0 0 1-7.9-4.9l6.6 30.4a136.7 136.7 0 0 0 1.5-21.5zm42-60a31.9 31.9 0 0 0-50.9.4 106.4 106.4 0 0 1 10.4 20.8 113.7 113.7 0 0 1 6.3 28.8 30.8 30.8 0 0 0 9.1 1.3 29.9 29.9 0 0 0 9.1-1.4 118.6 118.6 0 0 1 5.9-28.9 106.9 106.9 0 0 1 10.1-21z"/><path d="M63.7 28.6a83 83 0 0 0 1.5 34.6 71.6 71.6 0 0 0 9.1 20.6 90.1 90.1 0 0 1 7.6-18.4 169.4 169.4 0 0 1 9.4-15.8 4.2 4.2 0 0 1 5.9-1 4.2 4.2 0 0 1 1 5.8C93.4 61.3 81.5 81.1 81.3 93c1.7 2 3.5 3.8 5.4 5.7a106.7 106.7 0 0 1 10.7 11.7 40.2 40.2 0 0 1 61-.4 98.1 98.1 0 0 1 10.5-12c1.8-1.7 3.5-3.6 5.1-5.4-.2-12-12.6-31.8-17.6-38.7a4.2 4.2 0 0 1 1-5.8 4.3 4.3 0 0 1 5.9.9c.2.3 4.9 7 9.7 15.7a93.7 93.7 0 0 1 7.9 18.5 72.5 72.5 0 0 0 9-21 82.9 82.9 0 0 0 .9-34.5 20.7 20.7 0 0 1-.4-2.2 120.1 120.1 0 0 0-126.3.9 17 17 0 0 1-.4 2.2zm73.4 148.5v-1.3a40.3 40.3 0 0 1-17.4.1 5.7 5.7 0 0 0 .1 1.3 137.7 137.7 0 0 1-4.7 37.3l27.2-.2a135.9 135.9 0 0 1-5.2-37.2zm19.4-26.3a5.4 5.4 0 0 1 1-2 32.6 32.6 0 0 0 2.5-12.6 31.6 31.6 0 0 0-1.3-8.7l-1.5-.2a87.2 87.2 0 0 0-5.9 13.6 103.3 103.3 0 0 0-5 21.8 32 32 0 0 0 10.2-11.7zM45.8 114.1a29.8 29.8 0 0 0 6.2 3.6c6.8 3.1 18.2 5.8 36.1 3.4l-5.7-2.3c-7.6-2.7-19.8-5.5-36.6-4.7zm157.8 2.4a26.6 26.6 0 0 0 6.1-3.7c-20.4-.7-34.1 3.8-42.1 7.7 11.6 1.4 25.1 1.2 36-4zM153.2 168a38.2 38.2 0 0 1-7.7 4.8v4.3a130.4 130.4 0 0 0 1.8 21.3zm-48.3-26.9a85.7 85.7 0 0 0-6.1-13.4l-1.4.3a31.5 31.5 0 0 0-1.2 8.7 32.1 32.1 0 0 0 14.1 26.3 97.5 97.5 0 0 0-5.4-21.9z"/><path d="M248 127.1a119.8 119.8 0 0 0-48.2-95.2 88.4 88.4 0 0 1-1.7 32.2c-3.7 14.9-11.6 28.4-23.3 39.9a90.7 90.7 0 0 0-6.7 7.2c10.7-4.4 27.4-8.4 51-6a4.2 4.2 0 0 1 3.2 2.2 3.9 3.9 0 0 1 0 3.9c-.4.9-10.1 18-42.3 18.2a111.7 111.7 0 0 1-12.4-.7 36.5 36.5 0 0 1 .8 7.4 40.8 40.8 0 0 1-3.9 17.5L152 218.4a4.4 4.4 0 0 1-1.3 3.1l-.7.6-18.9 12.4a4.1 4.1 0 0 1-4.6 0l-18.8-12.1a4.2 4.2 0 0 1-1.9-2.6l-14.2-66.4a40 40 0 0 1-3.8-16.6 45.2 45.2 0 0 1 .6-7.4 95.7 95.7 0 0 1-12.6.9c-32.2.3-42.1-16.6-42.6-17.5a4.1 4.1 0 0 1-.1-3.9 4.1 4.1 0 0 1 3.2-2.2c23.9-2.9 40.8 1 51.5 5.3a93.6 93.6 0 0 0-6.9-7.3q-3.6-3.5-6.9-7.2v-.2a81.5 81.5 0 0 1-17-32.1A90.3 90.3 0 0 1 54.7 33 120 120 0 1 0 248 127.1z"/></symbol><symbol id="logo-small" viewBox="0 0 256 256"><path d="M103.3 190.8a63.4 63.4 0 0 1-11.7-7.2l9.6 44.8a186.8 186.8 0 0 0 2.2-31.7c0-2-.1-4-.1-5.9zm11.8-8.8a48.2 48.2 0 0 0 26.8-.2 173.2 173.2 0 0 1 8.7-42.6 150.1 150.1 0 0 1 14.9-31 47 47 0 0 0-75.2.6 152.1 152.1 0 0 1 15.4 30.7 168.5 168.5 0 0 1 9.4 42.5zm76.8-155.5l2.5 4.4c5.5 10.2 9.4 19.3 11.6 27.3a103.3 103.3 0 0 0 7.6-14.3 117.5 117.5 0 0 0-21.7-17.4zm-132 5.4c.8-1.4 1.5-2.9 2.3-4.2a117.6 117.6 0 0 0-21 17.5 110.5 110.5 0 0 0 7.6 13.9c2.1-8 5.8-17 11.1-27.2z"/><path d="M83.4 16.6c-7.4 10.9-24 38.9-24.3 56.1 2.5 2.8 5.1 5.6 8 8.3a150.5 150.5 0 0 1 15.7 17.3 59.5 59.5 0 0 1 90-.7A182.4 182.4 0 0 1 188.3 80c2.7-2.6 5.2-5.3 7.6-8-.3-17.2-17.7-45.4-25.3-56.2a120.1 120.1 0 0 0-87.2.8zm64.3 229.8a206 206 0 0 1-6.3-49.7v-2a59.2 59.2 0 0 1-25.6.2v2a204 204 0 0 1-5.5 49.8A129.4 129.4 0 0 0 128 248a127.7 127.7 0 0 0 19.7-1.6zm7.3-71a47 47 0 0 0 15-17.2v-.3a6.1 6.1 0 0 1 1.4-2.9 47.9 47.9 0 0 0 3.7-18.6 45 45 0 0 0-1.9-12.8l-2.2-.4a155.4 155.4 0 0 0-8.8 20 154 154 0 0 0-7.2 32.2zM15.8 109c10 4.6 26.9 8.7 53.3 5.1-2.5-1.1-5.2-2.3-8.4-3.4-10.5-3.8-26.8-7.6-48.9-7.1a1.7 1.7 0 0 0-1.6 1.3 1.5 1.5 0 0 0 .8 1.6 43 43 0 0 0 4.8 2.5zm170.6 4.2c17.2 2 37.1 1.7 53.2-5.9a40.3 40.3 0 0 0 5.1-2.8 1.5 1.5 0 0 0 .7-1.5 1.6 1.6 0 0 0-1.5-1.2c-27.5-.3-46.3 5.9-57.5 11.4zm-32.6 83.5a189.8 189.8 0 0 0 2.7 31.5l8.7-45a63.6 63.6 0 0 1-11.3 7.2c-.1 2.1-.1 4.2-.1 6.3zm-51.9-20.9a154.1 154.1 0 0 0-7.9-32.3 153.1 153.1 0 0 0-9.1-19.7l-2.1.4a46.4 46.4 0 0 0-1.7 13 47 47 0 0 0 20.8 38.6zm-33.2-75.1a147 147 0 0 0-10.2-10.8 126.8 126.8 0 0 1-10.1-10.7c-.1 0-.1-.1-.2-.2a124 124 0 0 1-15.8-23.5 120.4 120.4 0 0 0-18.7 35.9c24.4-.3 42.6 4.2 55 9.3zm117.8 24.8a63.8 63.8 0 0 1 1.1 10.8 60.3 60.3 0 0 1-5.7 25.9l-15.4 79.4A119.9 119.9 0 0 0 248 128c0-3.7-.2-7.4-.5-11-9.7 5.1-23.5 9.3-42.8 9.5a171.8 171.8 0 0 1-18.2-1zM68.7 137.3a64.1 64.1 0 0 1 .9-10.9 184.2 184.2 0 0 1-18.6 1.3c-19.1.1-32.9-3.8-42.6-8.7-.3 3-.4 6-.4 9a119.9 119.9 0 0 0 83.6 114.3l-17.4-80.5a59.4 59.4 0 0 1-5.5-24.5zm118.5-37.8c12.4-5.1 30.4-9.9 54.5-9.9a119.6 119.6 0 0 0-19.2-35.5A125.8 125.8 0 0 1 197 88.8a139.4 139.4 0 0 0-9.8 10.7z"/></symbol><symbol id="nav-close" viewBox="0 0 256 256"><rect width="198" height="20" x="29" y="85.5" rx="10" ry="10"/><rect width="198" height="20" x="29" y="150.5" rx="10" ry="10"/></symbol><symbol id="nav-open" viewBox="0 0 253 253"><rect width="198" height="20" x="27.5" y="116.5" rx="10" ry="10" transform="rotate(-45 126.499 126.502)"/><rect width="198" height="20" x="27.5" y="116.5" rx="10" ry="10" transform="rotate(45 126.502 126.499)"/></symbol><symbol id="twitter" viewBox="0 0 256 256"><path d="M248 128a120 120 0 0 1-120 120h-2.5a120 120 0 1 1 122.3-126c.1 2 .2 4 .2 6zm-39.9-38.8l-18.2 5.9 1.2-.7.8-.5 1.3-1.1c5.6-5.3 9.7-16.5 10-17.3L187 84.1c-13.6-16.7-25.6-15.6-39.6-9.4-16.1 7.2-14 30.8-14 30.8-52.5-1.3-65.6-24.9-65.6-24.9-15.1 24.4 9.5 39.8 9.5 39.8-3.7 0-14-4.5-14-4.5.6 13.6 11.1 22.8 20.4 28.3l4 2.2 1.3.6 1.2.6c2 1 3.7 1.7 5 2.2l.7.2 1.8.7-.6.3-.5.3-.7.3-.9.3h-.1a16.1 16.1 0 0 1-3.3.6c-7.8.7-18.2-2.3-18.2-2.3a26.6 26.6 0 0 0 13.4 16.1l1.5.7 1.3.6 1.5.7c1.9.7 3.7 1.2 5.2 1.6l3.2.6 1.2.2h1.6a10.4 10.4 0 0 1-1.7 1.2 8.8 8.8 0 0 1-1.7 1.2l-3.6 2.2c-17.7 9.6-36.6 7.4-36.6 7.4s1.8.9 2.7 1.2 4.5 2.1 6.8 3l2.7 1.1 3.9 1.4 2.7 1 5.8 1.8 2 .5 5.8 1.4 2.3.5 3 .5 2.9.4 2.4.3 3 .2c24.9 1.7 45.1-7.5 63.7-24.4 26.6-24.2 24.9-66.3 24.9-66.3a10.3 10.3 0 0 0 2-1.1l1.1-.9c4.9-4.4 11.3-13.8 11.7-14.4z"/></symbol></svg>