<svg xmlns="http://www.w3.org/2000/svg" width="256" height="256" viewBox="0 0 256 256"><path d="M248 128A120 120 0 1 1 128 8a120 120 0 0 1 120 120zm-53.6-27.2c-.6-3.7-1-7.4-1.9-11-3.9-16.1-16.3-26.4-32.7-27.5-1.3-.1-2.6-.5-3.9-.7h-55.8c-4 .7-8.1 1.1-12 2.2-14.8 4.1-24.6 16.5-25.8 32.1-.1 1.4-.5 2.8-.7 4.2v55.8c.8 4.3 1.3 8.7 2.6 12.9 4.4 14.5 16.8 24 32 24.9 1.6.1 3.1.5 4.6.7h54.4c3.8-.7 7.6-1.1 11.4-2a35 35 0 0 0 27.1-32.7c.1-1.5.5-3 .7-4.5z"/><path d="M127.9 106a22 22 0 1 0 22 22.1 21.8 21.8 0 0 0-22-22.1z"/><path d="M156.9 74.3c-19.3-.3-38.6-.3-58 0-13.5.2-22.4 7.7-24.1 21.2-1.3 10.6-.8 51.6-.6 61.3.4 14.9 10 24.7 25 24.9 19.2.3 38.4.3 57.7 0 14.8-.2 24.5-9.9 24.8-24.7.3-19.3.3-38.7 0-58-.2-14.8-10-24.5-24.8-24.7zm-28.8 87.8a34.2 34.2 0 1 1 34-34.2 34.1 34.1 0 0 1-34 34.2zm35.3-61.4a8.3 8.3 0 0 1-8.1-8.4 8.2 8.2 0 0 1 8.3-7.8 8 8 0 0 1 7.8 8.2 8.1 8.1 0 0 1-8 8z"/></svg>