<svg xmlns="http://www.w3.org/2000/svg" width="256" height="256" viewBox="0 0 256 256"><path fill="#1e1e1e" d="M103.3 190.8a63.4 63.4 0 0 1-11.7-7.2l9.6 44.8a186.8 186.8 0 0 0 2.2-31.7c0-2-.1-4-.1-5.9zm11.8-8.8a48.2 48.2 0 0 0 26.8-.2 173.2 173.2 0 0 1 8.7-42.6 150.1 150.1 0 0 1 14.9-31 47 47 0 0 0-75.2.6 152.1 152.1 0 0 1 15.4 30.7 168.5 168.5 0 0 1 9.4 42.5zm76.8-155.5l2.5 4.4c5.5 10.2 9.4 19.3 11.6 27.3a103.3 103.3 0 0 0 7.6-14.3 117.5 117.5 0 0 0-21.7-17.4zm-132 5.4c.8-1.4 1.5-2.9 2.3-4.2a117.6 117.6 0 0 0-21 17.5 110.5 110.5 0 0 0 7.6 13.9c2.1-8 5.8-17 11.1-27.2z"/><path fill="#1e1e1e" d="M83.4 16.6c-7.4 10.9-24 38.9-24.3 56.1 2.5 2.8 5.1 5.6 8 8.3a150.5 150.5 0 0 1 15.7 17.3 59.5 59.5 0 0 1 90-.7A182.4 182.4 0 0 1 188.3 80c2.7-2.6 5.2-5.3 7.6-8-.3-17.2-17.7-45.4-25.3-56.2a120.1 120.1 0 0 0-87.2.8zm64.3 229.8a206 206 0 0 1-6.3-49.7v-2a59.2 59.2 0 0 1-25.6.2v2a204 204 0 0 1-5.5 49.8A129.4 129.4 0 0 0 128 248a127.7 127.7 0 0 0 19.7-1.6zm7.3-71a47 47 0 0 0 15-17.2v-.3a6.1 6.1 0 0 1 1.4-2.9 47.9 47.9 0 0 0 3.7-18.6 45 45 0 0 0-1.9-12.8l-2.2-.4a155.4 155.4 0 0 0-8.8 20 154 154 0 0 0-7.2 32.2zM15.8 109c10 4.6 26.9 8.7 53.3 5.1-2.5-1.1-5.2-2.3-8.4-3.4-10.5-3.8-26.8-7.6-48.9-7.1a1.7 1.7 0 0 0-1.6 1.3 1.5 1.5 0 0 0 .8 1.6 43 43 0 0 0 4.8 2.5zm170.6 4.2c17.2 2 37.1 1.7 53.2-5.9a40.3 40.3 0 0 0 5.1-2.8 1.5 1.5 0 0 0 .7-1.5 1.6 1.6 0 0 0-1.5-1.2c-27.5-.3-46.3 5.9-57.5 11.4zm-32.6 83.5a189.8 189.8 0 0 0 2.7 31.5l8.7-45a63.6 63.6 0 0 1-11.3 7.2c-.1 2.1-.1 4.2-.1 6.3zm-51.9-20.9a154.1 154.1 0 0 0-7.9-32.3 153.1 153.1 0 0 0-9.1-19.7l-2.1.4a46.4 46.4 0 0 0-1.7 13 47 47 0 0 0 20.8 38.6zm-33.2-75.1a147 147 0 0 0-10.2-10.8 126.8 126.8 0 0 1-10.1-10.7c-.1 0-.1-.1-.2-.2a124 124 0 0 1-15.8-23.5 120.4 120.4 0 0 0-18.7 35.9c24.4-.3 42.6 4.2 55 9.3zm117.8 24.8a63.8 63.8 0 0 1 1.1 10.8 60.3 60.3 0 0 1-5.7 25.9l-15.4 79.4A119.9 119.9 0 0 0 248 128c0-3.7-.2-7.4-.5-11-9.7 5.1-23.5 9.3-42.8 9.5a171.8 171.8 0 0 1-18.2-1zM68.7 137.3a64.1 64.1 0 0 1 .9-10.9 184.2 184.2 0 0 1-18.6 1.3c-19.1.1-32.9-3.8-42.6-8.7-.3 3-.4 6-.4 9a119.9 119.9 0 0 0 83.6 114.3l-17.4-80.5a59.4 59.4 0 0 1-5.5-24.5zm118.5-37.8c12.4-5.1 30.4-9.9 54.5-9.9a119.6 119.6 0 0 0-19.2-35.5A125.8 125.8 0 0 1 197 88.8a139.4 139.4 0 0 0-9.8 10.7z"/></svg>