<svg xmlns="http://www.w3.org/2000/svg" width="256" height="256" viewBox="0 0 256 256"><path d="M133.7 222.8l-9.8.1 4.9 3.1 4.9-3.2zm-22.3-45.7c-.1-1.4-.1-2.7-.2-4a43.2 43.2 0 0 1-7.9-4.9l6.6 30.4a136.7 136.7 0 0 0 1.5-21.5zm42-60a31.9 31.9 0 0 0-50.9.4 106.4 106.4 0 0 1 10.4 20.8 113.7 113.7 0 0 1 6.3 28.8 30.8 30.8 0 0 0 9.1 1.3 29.9 29.9 0 0 0 9.1-1.4 118.6 118.6 0 0 1 5.9-28.9 106.9 106.9 0 0 1 10.1-21z"/><path d="M63.7 28.6a83 83 0 0 0 1.5 34.6 71.6 71.6 0 0 0 9.1 20.6 90.1 90.1 0 0 1 7.6-18.4 169.4 169.4 0 0 1 9.4-15.8 4.2 4.2 0 0 1 5.9-1 4.2 4.2 0 0 1 1 5.8C93.4 61.3 81.5 81.1 81.3 93c1.7 2 3.5 3.8 5.4 5.7a106.7 106.7 0 0 1 10.7 11.7 40.2 40.2 0 0 1 61-.4 98.1 98.1 0 0 1 10.5-12c1.8-1.7 3.5-3.6 5.1-5.4-.2-12-12.6-31.8-17.6-38.7a4.2 4.2 0 0 1 1-5.8 4.3 4.3 0 0 1 5.9.9c.2.3 4.9 7 9.7 15.7a93.7 93.7 0 0 1 7.9 18.5 72.5 72.5 0 0 0 9-21 82.9 82.9 0 0 0 .9-34.5 20.7 20.7 0 0 1-.4-2.2 120.1 120.1 0 0 0-126.3.9 17 17 0 0 1-.4 2.2zm73.4 148.5v-1.3a40.3 40.3 0 0 1-17.4.1 5.7 5.7 0 0 0 .1 1.3 137.7 137.7 0 0 1-4.7 37.3l27.2-.2a135.9 135.9 0 0 1-5.2-37.2zm19.4-26.3a5.4 5.4 0 0 1 1-2 32.6 32.6 0 0 0 2.5-12.6 31.6 31.6 0 0 0-1.3-8.7l-1.5-.2a87.2 87.2 0 0 0-5.9 13.6 103.3 103.3 0 0 0-5 21.8 32 32 0 0 0 10.2-11.7zM45.8 114.1a29.8 29.8 0 0 0 6.2 3.6c6.8 3.1 18.2 5.8 36.1 3.4l-5.7-2.3c-7.6-2.7-19.8-5.5-36.6-4.7zm157.8 2.4a26.6 26.6 0 0 0 6.1-3.7c-20.4-.7-34.1 3.8-42.1 7.7 11.6 1.4 25.1 1.2 36-4zM153.2 168a38.2 38.2 0 0 1-7.7 4.8v4.3a130.4 130.4 0 0 0 1.8 21.3zm-48.3-26.9a85.7 85.7 0 0 0-6.1-13.4l-1.4.3a31.5 31.5 0 0 0-1.2 8.7 32.1 32.1 0 0 0 14.1 26.3 97.5 97.5 0 0 0-5.4-21.9z"/><path d="M248 127.1a119.8 119.8 0 0 0-48.2-95.2 88.4 88.4 0 0 1-1.7 32.2c-3.7 14.9-11.6 28.4-23.3 39.9a90.7 90.7 0 0 0-6.7 7.2c10.7-4.4 27.4-8.4 51-6a4.2 4.2 0 0 1 3.2 2.2 3.9 3.9 0 0 1 0 3.9c-.4.9-10.1 18-42.3 18.2a111.7 111.7 0 0 1-12.4-.7 36.5 36.5 0 0 1 .8 7.4 40.8 40.8 0 0 1-3.9 17.5L152 218.4a4.4 4.4 0 0 1-1.3 3.1l-.7.6-18.9 12.4a4.1 4.1 0 0 1-4.6 0l-18.8-12.1a4.2 4.2 0 0 1-1.9-2.6l-14.2-66.4a40 40 0 0 1-3.8-16.6 45.2 45.2 0 0 1 .6-7.4 95.7 95.7 0 0 1-12.6.9c-32.2.3-42.1-16.6-42.6-17.5a4.1 4.1 0 0 1-.1-3.9 4.1 4.1 0 0 1 3.2-2.2c23.9-2.9 40.8 1 51.5 5.3a93.6 93.6 0 0 0-6.9-7.3q-3.6-3.5-6.9-7.2v-.2a81.5 81.5 0 0 1-17-32.1A90.3 90.3 0 0 1 54.7 33 120 120 0 1 0 248 127.1z"/></svg>