<svg xmlns="http://www.w3.org/2000/svg" width="256" height="256" viewBox="0 0 256 256"><path d="M133.6 222.4l-9.7.1 4.9 3.1 4.8-3.2zm-22.2-45.5c0-1.4 0-2.7-.1-4a39.7 39.7 0 0 1-7.9-4.8l6.5 30.2a123.7 123.7 0 0 0 1.5-21.4zm41.9-59.7a31.7 31.7 0 0 0-50.7.4 105.2 105.2 0 0 1 10.3 20.7 116.5 116.5 0 0 1 6.4 28.7 33.2 33.2 0 0 0 9 1.2 30.4 30.4 0 0 0 9.1-1.4 112.6 112.6 0 0 1 5.9-28.7 103.1 103.1 0 0 1 10-20.9z"/><path d="M64 29a84.4 84.4 0 0 0 1.4 34.5A72.2 72.2 0 0 0 74.5 84 98.4 98.4 0 0 1 82 65.7a158.1 158.1 0 0 1 9.5-15.8 4.2 4.2 0 0 1 6.8 4.8c-4.7 6.8-16.6 26.5-16.8 38.5 1.7 1.9 3.5 3.8 5.4 5.6a116.6 116.6 0 0 1 10.6 11.7 40.1 40.1 0 0 1 60.8-.5 115 115 0 0 1 10.4-11.9 65.1 65.1 0 0 0 5.1-5.4c-.2-11.9-12.6-31.7-17.5-38.5a4.2 4.2 0 0 1 1-5.8 4.2 4.2 0 0 1 5.8.9 164.7 164.7 0 0 1 9.7 15.7 87.5 87.5 0 0 1 7.9 18.4 70.1 70.1 0 0 0 8.9-20.9 82.9 82.9 0 0 0 .9-34.5 15.5 15.5 0 0 0-.4-2.1 119.6 119.6 0 0 0-125.7.9A17 17 0 0 0 64 29zm73 147.9v-1.3a39.7 39.7 0 0 1-8.6 1 40.5 40.5 0 0 1-8.6-.9v1.3a142.1 142.1 0 0 1-4.6 37.2l27-.2a144.2 144.2 0 0 1-5.2-37.1zm19.4-26.2a3.5 3.5 0 0 1 1-1.9 32.9 32.9 0 0 0 2.5-12.6 35.9 35.9 0 0 0-1.3-8.7l-1.5-.2a90.4 90.4 0 0 0-5.9 13.5 103.8 103.8 0 0 0-5 21.7 30.9 30.9 0 0 0 10.2-11.6zM46.1 114.2a35.1 35.1 0 0 0 6.2 3.5c6.7 3.1 18.2 5.9 35.9 3.5-1.6-.8-3.5-1.6-5.6-2.4-7.6-2.7-19.8-5.5-36.5-4.6zm157.2 2.4a36.2 36.2 0 0 0 6.1-3.7c-20.3-.8-34 3.7-42 7.6 11.6 1.4 25 1.2 35.9-3.9zm-50.2 51.2a37.5 37.5 0 0 1-7.6 4.8c-.1 1.4-.1 2.9-.1 4.3a130.4 130.4 0 0 0 1.8 21.3zM105 141a89 89 0 0 0-6.1-13.3l-1.4.3a31 31 0 0 0-1.2 8.7 31.7 31.7 0 0 0 14.1 26.1A98 98 0 0 0 105 141z"/><path d="M247.5 127.1a119.3 119.3 0 0 0-47.9-94.8 89.5 89.5 0 0 1-1.8 32c-3.7 14.9-11.5 28.3-23.2 39.8a90.7 90.7 0 0 0-6.7 7.2c10.7-4.4 27.4-8.4 50.9-6a4.5 4.5 0 0 1 3.2 2.2 4.5 4.5 0 0 1 0 3.9c-.5.9-10.2 17.9-42.2 18.1a108.7 108.7 0 0 1-12.3-.7 45.1 45.1 0 0 1 .7 7.3 39.3 39.3 0 0 1-3.8 17.5l-12.5 64.5a4.2 4.2 0 0 1-1.3 3l-.7.6-18.8 12.4a4.8 4.8 0 0 1-2.3.7 3.9 3.9 0 0 1-2.3-.7L107.7 222a4.4 4.4 0 0 1-1.8-2.6l-14.2-66.1a39.5 39.5 0 0 1-3.7-16.5 45.2 45.2 0 0 1 .6-7.4 95.7 95.7 0 0 1-12.6.9c-32 .3-41.9-16.6-42.4-17.4a4.1 4.1 0 0 1-.1-3.9 4 4 0 0 1 3.2-2.2c23.7-2.9 40.6 1 51.3 5.3-2.2-2.5-4.5-4.9-6.9-7.3a92 92 0 0 1-6.8-7.2h-.2a81.3 81.3 0 0 1-16.8-32.2A89.6 89.6 0 0 1 55 33.3a119.5 119.5 0 1 0 192.5 93.8z"/></svg>