<svg xmlns="http://www.w3.org/2000/svg" width="256" height="256" viewBox="0 0 256 256"><path fill="#1e1e1e" d="M248 128a120 120 0 0 1-120 120h-2.5a120 120 0 1 1 122.3-126c.1 2 .2 4 .2 6zm-39.9-38.8l-18.2 5.9 1.2-.7.8-.5 1.3-1.1c5.6-5.3 9.7-16.5 10-17.3L187 84.1c-13.6-16.7-25.6-15.6-39.6-9.4-16.1 7.2-14 30.8-14 30.8-52.5-1.3-65.6-24.9-65.6-24.9-15.1 24.4 9.5 39.8 9.5 39.8-3.7 0-14-4.5-14-4.5.6 13.6 11.1 22.8 20.4 28.3l4 2.2 1.3.6 1.2.6c2 1 3.7 1.7 5 2.2l.7.2 1.8.7-.6.3-.5.3-.7.3-.9.3h-.1a16.1 16.1 0 0 1-3.3.6c-7.8.7-18.2-2.3-18.2-2.3a26.6 26.6 0 0 0 13.4 16.1l1.5.7 1.3.6 1.5.7c1.9.7 3.7 1.2 5.2 1.6l3.2.6 1.2.2h1.6a10.4 10.4 0 0 1-1.7 1.2 8.8 8.8 0 0 1-1.7 1.2l-3.6 2.2c-17.7 9.6-36.6 7.4-36.6 7.4s1.8.9 2.7 1.2 4.5 2.1 6.8 3l2.7 1.1 3.9 1.4 2.7 1 5.8 1.8 2 .5 5.8 1.4 2.3.5 3 .5 2.9.4 2.4.3 3 .2c24.9 1.7 45.1-7.5 63.7-24.4 26.6-24.2 24.9-66.3 24.9-66.3a10.3 10.3 0 0 0 2-1.1l1.1-.9c4.9-4.4 11.3-13.8 11.7-14.4z"/></svg>