<svg height="459.7" viewBox="0 0 1346.9 459.7" width="1346.9" xmlns="http://www.w3.org/2000/svg"><path d="m146.9 230.8a30.8 30.8 0 0 0 3.8-4.3 33.9 33.9 0 0 0 6.9-21.7c0-10.7-4.4-19.5-12.8-26.2s-18-9.4-29.9-9.2l-43.2.3 1.1 129.3 46.2-.3a59.7 59.7 0 0 0 23.5-4.7 38.4 38.4 0 0 0 16.8-13.5 34.6 34.6 0 0 0 5.9-20.1 31.7 31.7 0 0 0 -9.9-23.6 36.6 36.6 0 0 0 -8.4-6zm-31.5-44c7.4 0 13.5 1.7 18.4 5.3s6.3 7.2 6.4 12.8-2 10.8-6.5 14.2-12 5.6-20.6 5.7l-23.4.2-.3-38 25.6-.2zm-25.3 94.6-.3-38.9 28.8-.3c9.1-.1 16.6 1.8 22.1 5.3s7 7.2 7.1 13a16.5 16.5 0 0 1 -7.2 14.2c-5.6 4.1-12.9 6.3-21.7 6.5zm131.3-2-.8-107.3-17.5.1 1 124.8 82-.6-.1-17.5zm98.7 16.7 19.3-.2 6.3-14.1 65.6-.5 6.5 14h19.3l-59.4-128.9zm83.3-32.2-50 .4 24.6-55.6zm144 8.5c-7.9 5-17.3 7.6-27.9 7.6a45.9 45.9 0 0 1 -24.4-6.1 45.4 45.4 0 0 1 -17.4-17.1 48.7 48.7 0 0 1 -6.5-24.5 48.2 48.2 0 0 1 6.1-24.7 46.1 46.1 0 0 1 17.1-17.4 46.8 46.8 0 0 1 24.3-6.5 49.6 49.6 0 0 1 24.7 5.8l5.5 3 10.6-14.1-7.1-4a68.1 68.1 0 0 0 -33.2-8.2h-.6a65.6 65.6 0 0 0 -33.1 8.9 63.7 63.7 0 0 0 -23.3 23.9 66.6 66.6 0 0 0 -8.3 33.5 65.3 65.3 0 0 0 8.8 33.2 62.9 62.9 0 0 0 23.7 23.5 65.6 65.6 0 0 0 32.6 8.3h.6c14-.1 26.5-3.6 37.2-10.3l6.2-3.8-9.6-14.8zm149.4-104-21.3.1-43.3 60.8 47.2 64 21.4-.2-47.7-64zm-99.034 1.318 17.5-.122.87 124.767-17.499.122zm269.034 57.682a174.1 174.1 0 0 0 -20.6-7.9c-7.6-2.7-13.7-5-18.1-7a25.6 25.6 0 0 1 -9.3-6.7c-2-2.2-2.9-5.1-3-8.7 0-5.6 1.8-9.5 5.6-12.4s11.1-5.1 19.9-5.1 18 2.2 24.9 7.2l5 3.5 12.3-12.5-6.8-4.9a53.5 53.5 0 0 0 -18.1-8.5 63.6 63.6 0 0 0 -17.4-2.3c-12.8.1-23.1 3.1-30.7 8.9s-12.2 15.1-12.1 26.2c0 7.9 2.4 14.7 7 20a46.4 46.4 0 0 0 15.1 11.4 194.1 194.1 0 0 0 20.7 8 172.4 172.4 0 0 1 17.9 6.9 29.7 29.7 0 0 1 9.2 6.6c1.9 2.1 2.8 4.8 2.9 8.3 0 5.9-2.4 10.5-7.5 14.3s-13.5 6.3-23.2 6.4a51.7 51.7 0 0 1 -18.5-3.1 45.7 45.7 0 0 1 -15.3-9.1l-5.1-4.5-12.2 12.4 5.6 5c12.7 11.2 27.8 16.8 45 16.8h.7a62.5 62.5 0 0 0 23.9-4.6 40.3 40.3 0 0 0 17.5-13.4 32.8 32.8 0 0 0 6.5-20.3c0-7.8-2.4-14.5-6.9-19.7a43.7 43.7 0 0 0 -14.9-11.2zm147.9-61.5-101.5.8.1 17.5 41.9-.4.9 107.3 17.4-.1-.8-107.3 42.1-.3zm8.1 124.7h19.3l6.3-14.2 65.6-.5 6.5 14h19.3l-59.4-128.8zm83.3-32.2-50 .4 24.6-55.6zm168.7-38.1-48.1.4.2 17.4 30.6-.2v21.2a45.4 45.4 0 0 1 -14.4 10.8 49.2 49.2 0 0 1 -21 4.6 45.9 45.9 0 0 1 -24.4-6.1 44.7 44.7 0 0 1 -17.4-17.1 51.2 51.2 0 0 1 -.4-49.2 46.1 46.1 0 0 1 17.1-17.4 48 48 0 0 1 24.3-6.5c9.3 0 17.6 1.9 24.8 5.8l5.4 3 10.7-14.1-7.2-4c-10-5.5-21.3-8.2-33.8-8.2a64.9 64.9 0 0 0 -33 8.9 62.2 62.2 0 0 0 -23.3 23.9 65.7 65.7 0 0 0 -8.4 33.5 66.3 66.3 0 0 0 8.8 33.2 62.2 62.2 0 0 0 23.7 23.5 65.9 65.9 0 0 0 32.6 8.3h.6a66.2 66.2 0 0 0 29.1-6.7 61.2 61.2 0 0 0 22.2-18.1l1.5-1.9z"/></svg>